<svg width="58" height="116" viewBox="0 0 58 116" fill="none" xmlns="http://www.w3.org/2000/svg">
<g clip-path="url(#clip0_75_222)">
<path d="M57.9026 27.5425H57.2695V10.0971C57.2695 8.77113 57.0099 7.45816 56.5055 6.23314C56.0011 5.00811 55.2618 3.89502 54.3298 2.95742C53.3978 2.01982 52.2914 1.27607 51.0737 0.768639C49.8559 0.261203 48.5508 1.90432e-05 47.2327 0L10.4915 0C7.82956 3.84587e-05 5.27665 1.06383 3.39437 2.95736C1.5121 4.8509 0.454628 7.41907 0.45459 10.0969V105.805C0.45459 108.483 1.51204 111.051 3.39432 112.945C5.27661 114.838 7.82953 115.902 10.4915 115.902H47.2327C49.8947 115.902 52.4477 114.838 54.33 112.945C56.2123 111.051 57.2698 108.483 57.2698 105.805V39.9605H57.9029L57.9026 27.5425Z" fill="#6661F5"/>
<path d="M55.1337 10.1679V105.735C55.1346 106.724 54.9418 107.704 54.5662 108.618C54.1907 109.533 53.6398 110.364 52.945 111.064C52.2502 111.764 51.4251 112.32 50.5168 112.699C49.6085 113.079 48.6348 113.274 47.6513 113.275H10.7199C9.73628 113.276 8.76211 113.082 7.85306 112.704C6.944 112.326 6.11786 111.771 5.42181 111.072C4.72576 110.373 4.17342 109.543 3.79634 108.629C3.41926 107.715 3.22482 106.735 3.22412 105.745V10.1679C3.22342 9.1783 3.41648 8.19831 3.79226 7.28381C4.16805 6.36932 4.7192 5.53824 5.41427 4.83803C6.10933 4.13781 6.93468 3.58218 7.8432 3.20284C8.75172 2.82351 9.72562 2.6279 10.7093 2.6272H15.1983C14.9777 3.17114 14.8935 3.7613 14.9531 4.34569C15.0127 4.93008 15.2142 5.49076 15.54 5.97831C15.8658 6.46586 16.3058 6.86533 16.8212 7.1415C17.3366 7.41767 17.9116 7.56207 18.4956 7.56198H39.5451C40.1291 7.56207 40.7041 7.41767 41.2196 7.1415C41.735 6.86533 42.1749 6.46586 42.5007 5.97831C42.8265 5.49076 43.028 4.93008 43.0876 4.34569C43.1472 3.7613 43.063 3.17114 42.8424 2.6272H47.6379C48.6214 2.6263 49.5954 2.82029 50.5044 3.19807C51.4133 3.57585 52.2394 4.13004 52.9354 4.82899C53.6315 5.52794 54.1839 6.35796 54.5611 7.27166C54.9382 8.18537 55.1328 9.16486 55.1337 10.1542V10.1679Z" fill="white"/>
<path d="M16.3333 63.8V59.5333H29.6667V63.8H16.3333ZM32.3333 63.8V59.5333H45.6667V63.8H32.3333Z" fill="#362C28"/>
<path d="M15.3333 62.8V58.5333H28.6667V62.8H15.3333ZM31.3333 62.8V58.5333H44.6667V62.8H31.3333Z" fill="#E86534"/>
</g>
<defs>
<clipPath id="clip0_75_222">
<rect width="58" height="116" fill="white"/>
</clipPath>
</defs>
</svg>
